# xmcd
#
# Track frame offsets: 
#        182
#        12560
#        23167
#        37952
#        56070
#        72335
#        97377
#        114642
#        131750
#        143500
#
# Disc length: 2106 seconds
#
# Revision: 4
# Processed by: cddbd v1.5.2PL0 Copyright (c) Steve Scherf et al.
# Submitted via: ExactAudioCopyFreeDBPlugin 1.0
#
DISCID=9008380a
DTITLE=Aretha Franklin - A Natural Woman and Other Hits
DYEAR=1997
DGENRE=Soul
TTITLE0=(You Make Me Feel Like) A Natural Woman
TTITLE1=The House That Jack Built
TTITLE2=Son of a Preacher Man
TTITLE3=Spirit in the Dark
TTITLE4=I Say a Little Prayer
TTITLE5=Bridge Over Troubled Water
TTITLE6=Ain't Nothing Like the Real Thing
TTITLE7=Without Love
TTITLE8=Eleanor Rigby
TTITLE9=Rock Steady
EXTD=
EXTT0=
EXTT1=
EXTT2=
EXTT3=
EXTT4=
EXTT5=
EXTT6=
EXTT7=
EXTT8=
EXTT9=
PLAYORDER=
